<svg width="20" height="30" viewBox="0 0 20 30" fill="none" xmlns="http://www.w3.org/2000/svg">
<path d="M12.4729 1.8777H12.4782H12.4729ZM12.4729 1.8777L10.3303 13.0081L18.0924 13.0339L7.52675 28.1228L9.66941 15.8776L1.90779 15.8508L12.4729 1.8777ZM12.4744 5.86781e-05C12.4231 5.86781e-05 12.3719 0.00190701 12.3215 0.005633C11.9863 0.0324191 11.7641 0.143201 11.5007 0.318294C11.3523 0.416091 11.2185 0.533966 11.1033 0.668478C11.0686 0.70885 11.036 0.750832 11.0054 0.794282L0.364297 14.7186C-0.0558785 15.288 -0.117599 16.0396 0.205248 16.6676C0.52762 17.2957 1.17949 17.6938 1.89402 17.6989L7.37578 17.7384L5.65234 27.7778C5.48854 28.6406 5.95382 29.5005 6.77281 29.847C7.01082 29.9481 7.26719 30.0002 7.52625 30C8.12304 30 8.61348 29.724 8.98146 29.2255L19.6359 14.1365C20.0561 13.5671 20.1173 12.8146 19.7949 12.1875C19.4726 11.5594 18.8207 11.1613 18.1062 11.1562L12.6244 11.1468L14.3293 2.31939C14.3655 2.17487 14.3836 2.02653 14.3835 1.87767C14.3835 0.861849 13.5654 0.033798 12.5418 0.000938833C12.519 1.09295e-10 12.4967 0 12.4744 0L12.4744 5.86781e-05Z" fill="#EA8B2A"/>
</svg>
